<?xml version="1.0" encoding="UTF-8"?>
<svg xmlns="http://www.w3.org/2000/svg" version="1.1" viewBox="0 0 1080 1080">
  <!-- Generator: Adobe Illustrator 30.3.0, SVG Export Plug-In . SVG Version: 2.1.3 Build 182)  -->
  <defs>
    <style>
      .st0 {
        fill: #fff;
      }
    </style>
  </defs>
  <g id="Layer_2">
    <rect width="1080" height="1080"/>
  </g>
  <g id="Layer_1">
    <g>
      <path class="st0" d="M629.81,368.68v119.86h-41v-114.4c0-26.16-16.4-44.51-41.78-44.51s-43.73,18.36-43.73,44.52v114.4h-40.98v-191.7h38.26v18.73c13.67-14.44,33.18-23.04,57.4-23.04,45.29,0,71.84,31.24,71.84,76.14"/>
      <path class="st0" d="M853.08,295.68l-92.53,196h-14.06l-92.92-196h43.73l56.23,126.89,55.82-126.89h43.73Z"/>
      <path class="st0" d="M414.72,380.39c0-50.37-37.48-87.85-88.63-87.85-55.84,0-99.17,44.12-99.17,100.34s43.72,99.96,103.06,99.96c30.46,0,56.23-11.72,76.53-30.85l-19.52-28.11c-16.01,14.06-33.58,22.65-55.83,22.65-26.99,0-47.71-12.34-57.61-34.6l141.09-37.81c.05-1.23.07-2.48.07-3.73h.01ZM267.45,390.42c.68-29.75,17.8-63.12,57.08-63.12,22.51,0,42.13,12.43,47.65,35.06l-104.73,28.07h0Z"/>
      <path class="st0" d="M853.08,466.55c-.09,11.37-9.38,20.52-20.75,20.43s-20.52-9.38-20.43-20.75c.09-11.34,9.33-20.47,20.67-20.43,11.38.11,20.53,9.38,20.51,20.75M847.73,466.55c0-8.91-6.73-15.64-15.16-15.64s-15.25,6.81-15.25,15.64,6.65,15.73,15.25,15.73,15.16-6.71,15.16-15.73M843.18,476.77h-6.24l-4.68-6.08h-2.2v6.08h-5.67v-20.35h8.42c4.64,0,8.2,2.68,8.2,7.14.04,2.36-1.16,4.57-3.17,5.82l5.34,7.39ZM830.05,465.82h2.75c1.23.07,2.28-.87,2.35-2.1s-.87-2.28-2.1-2.35h-3v4.45Z"/>
      <path class="st0" d="M0,0v1080h1080V0H0ZM1039.01,1039.01H40.98v-298.86h998.03v298.86ZM40.98,699.16V40.98h998.03v658.18H40.98Z"/>
      <g>
        <path class="st0" d="M364.11,848.26h63.94v16.92h-43.06v14.84h36.92v16h-36.92v17.74h43.76v17.39h-64.64v-82.88Z"/>
        <path class="st0" d="M440.55,848.26h28.08l10.26,36.28c1.53,5.22,4.84,18.9,4.84,18.9h.24s3.3-13.68,4.72-18.9l10.38-36.28h28.31v82.88h-19.11v-41.73c0-3.36.35-16.58.35-16.58h-.24s-2.95,12.4-3.89,15.42l-12.15,42.89h-17.22l-12.03-42.77c-.94-3.01-3.89-15.53-3.89-15.53h-.24s.35,13.33.35,16.69v41.62h-18.76v-82.88Z"/>
        <path class="st0" d="M565.72,848.26h21.47l30.44,82.88h-21.94l-4.96-14.95h-29.49l-4.84,14.95h-21l30.32-82.88ZM585.89,901.47l-6.37-20.05c-1.42-4.29-3.3-11.71-3.3-11.71h-.24s-2.01,7.42-3.42,11.71l-6.49,20.05h19.82Z"/>
        <path class="st0" d="M626,848.26h20.88v82.88h-20.88v-82.88Z"/>
        <path class="st0" d="M660.8,848.26h20.88v65.5h37.87v17.39h-58.75v-82.88Z"/>
      </g>
    </g>
  </g>
</svg>
