<svg xmlns="http://www.w3.org/2000/svg" viewBox="0 0 1080 1080"><defs><style>.st1{fill:#fff}</style></defs><path id="Layer_2" d="M0 0h1080v1080H0z"/><g id="Layer_1"><path d="M629.81 368.68v119.86h-41v-114.4c0-26.16-16.4-44.51-41.78-44.51s-43.73 18.36-43.73 44.52v114.4h-40.98v-191.7h38.26v18.73c13.67-14.44 33.18-23.04 57.4-23.04 45.29 0 71.84 31.24 71.84 76.14m223.26-73-92.53 196h-14.06l-92.92-196h43.73l56.23 126.89 55.82-126.89zm-438.36 84.71c0-50.37-37.48-87.85-88.63-87.85-55.84 0-99.17 44.12-99.17 100.34s43.72 99.96 103.06 99.96c30.46 0 56.23-11.72 76.53-30.85l-19.52-28.11c-16.01 14.06-33.58 22.65-55.83 22.65-26.99 0-47.71-12.34-57.61-34.6l141.09-37.81c.05-1.23.07-2.48.07-3.73zm-147.27 10.03c.68-29.75 17.8-63.12 57.08-63.12 22.51 0 42.13 12.43 47.65 35.06l-104.73 28.07Zm585.63 76.13c-.09 11.37-9.38 20.52-20.75 20.43s-20.52-9.38-20.43-20.75c.09-11.34 9.33-20.47 20.67-20.43 11.38.11 20.53 9.38 20.51 20.75m-5.35 0c0-8.91-6.73-15.64-15.16-15.64s-15.25 6.81-15.25 15.64 6.65 15.73 15.25 15.73 15.16-6.71 15.16-15.73m-4.55 10.22h-6.24l-4.68-6.08h-2.2v6.08h-5.67v-20.35h8.42c4.64 0 8.2 2.68 8.2 7.14a6.72 6.72 0 0 1-3.17 5.82zm-13.13-10.95h2.75c1.23.07 2.28-.87 2.35-2.1s-.87-2.28-2.1-2.35h-3z" class="st1"/><path d="M0 0v1080h1080V0zm1039.01 1039.01H40.98V740.15h998.03zM40.98 699.16V40.98h998.03v658.18z" class="st1"/><path d="M223.97 848.26h21.12l8.49 34.78c1.89 8 3.89 20.52 3.89 20.52h.24s2.24-11.36 4.13-19.71l7.9-35.59h19.35l7.9 35.36c1.89 8.46 4.01 19.94 4.01 19.94h.24s2.36-12.52 4.25-20.75l8.38-34.54h21l-23.12 82.88h-20.41l-8.85-39.76c-1.53-6.61-2.95-15.42-2.95-15.42h-.24s-1.42 8.81-2.83 15.42l-8.85 39.76h-20.53l-23.12-82.88Zm116.67 0h37.98c10.26 0 17.81 2.78 23 7.65 5.43 4.98 8.49 12.06 8.49 20.4 0 15.88-11.21 27.13-28.55 27.13h-19.7v27.71h-21.23v-82.88Zm36.68 38.95c7.55 0 11.8-4.41 11.8-11.01s-4.36-10.67-11.8-10.67h-15.45v21.68zm58.51-38.95h37.99c10.26 0 17.81 2.78 23 7.65 5.43 4.98 8.49 12.06 8.49 20.4 0 15.88-11.21 27.13-28.55 27.13h-19.7v27.71h-21.23v-82.88Zm36.69 38.95c7.55 0 11.8-4.41 11.8-11.01s-4.37-10.67-11.8-10.67h-15.45v21.68zm40.23-38.95h20.88v65.5h37.87v17.39h-58.75v-82.88Zm64.29 53.67v-53.67h20.88v54.37c0 8.11 4.25 13.56 14.51 13.56 9.67 0 14.27-5.8 14.27-13.91v-54.02h20.88v53.67c0 19.13-11.68 30.72-35.15 30.72s-35.39-11.36-35.39-30.72m89.54 19.48c-7.31-7.88-11.32-18.78-11.32-31.42s4.48-24.46 12.5-32.34c6.96-6.96 16.75-11.01 28.9-11.01 21.71 0 34.68 11.36 37.4 28.75h-20.29c-1.53-6.72-7.2-11.82-16.4-11.82-13.92 0-20.88 11.36-20.88 26.43s8.02 26.43 21.23 26.43c10.97 0 17.46-7.19 18.28-14.49v-.23h-15.81v-15.07h35.15v44.51h-14.63l-1.18-9.97h-.24c-5.54 8.46-13.8 11.82-23.95 11.82-12.03 0-21.82-4.17-28.78-11.59Zm79.04-73.15h20.88v82.88h-20.88zm32.44 0h21l25.01 41.62c1.3 2.32 5.78 10.55 5.78 10.55h.24s-.24-9.97-.24-12.87v-39.3h20.41v82.88h-21l-24.77-41.04c-1.42-2.2-6.02-11.13-6.02-11.13h-.24s.24 10.66.24 13.56v38.6h-20.41v-82.88Z" class="st1"/></g></svg>
