<svg xmlns="http://www.w3.org/2000/svg" viewBox="0 0 1080 1080"><path d="M0 0h1080v1080H0z"/><g fill="#fff"><path d="M620.31 386.81v107.18h-36.66v-102.3c0-23.39-14.66-39.8-37.36-39.8s-39.1 16.42-39.1 39.81V494h-36.64V322.58h34.21v16.75c12.22-12.91 29.67-20.6 51.33-20.6 40.5 0 64.24 27.93 64.24 68.08m199.62-65.28-82.74 175.26h-12.57l-83.09-175.26h39.1l50.28 113.46 49.91-113.46h39.1Zm-391.97 75.75c0-45.04-33.51-78.55-79.25-78.55-49.93 0-88.68 39.45-88.68 89.72s39.09 89.38 92.16 89.38c27.24 0 50.28-10.48 68.43-27.59l-17.45-25.14c-14.32 12.57-30.03 20.25-49.92 20.25-24.13 0-42.66-11.03-51.51-30.94l126.16-33.81c.04-1.1.06-2.22.06-3.34Zm-131.69 8.97c.61-26.6 15.92-56.44 51.04-56.44 20.13 0 37.67 11.11 42.61 31.35l-93.65 25.1Zm523.66 68.07c-.08 10.17-8.39 18.35-18.55 18.27s-18.35-8.39-18.27-18.55c.08-10.14 8.34-18.3 18.48-18.27 10.18.1 18.36 8.39 18.34 18.55m-4.78 0c0-7.97-6.02-13.99-13.56-13.99s-13.64 6.09-13.64 13.99 5.95 14.07 13.64 14.07 13.56-6 13.56-14.07m-4.07 9.14h-5.58l-4.18-5.44h-1.97v5.44h-5.07v-18.2h7.53c4.15 0 7.33 2.4 7.33 6.38a5.99 5.99 0 0 1-2.83 5.2l4.77 6.61Zm-11.74-9.79h2.46a1.992 1.992 0 1 0 .22-3.98h-2.68z"/><path d="M57.14 57.14v965.73h965.73V57.14zm929.07 929.07H93.78V718.97h892.43zM93.78 682.32V93.78h892.43v588.54z"/><path d="M257.4 815.64h18.88l7.59 31.1c1.69 7.15 3.48 18.35 3.48 18.35h.21s2-10.16 3.69-17.62l7.07-31.82h17.3l7.07 31.62c1.69 7.57 3.59 17.83 3.59 17.83h.21s2.11-11.19 3.8-18.55l7.49-30.89h18.78l-20.67 74.11h-18.25l-7.91-35.55c-1.37-5.91-2.64-13.79-2.64-13.79h-.21s-1.27 7.88-2.53 13.79l-7.91 35.55h-18.35l-20.67-74.11Zm104.33 0h33.97c9.18 0 15.93 2.49 20.57 6.84 4.85 4.46 7.59 10.78 7.59 18.24 0 14.2-10.02 24.26-25.53 24.26h-17.62v24.77h-18.99v-74.11Zm32.81 34.83c6.75 0 10.55-3.94 10.55-9.85s-3.9-9.54-10.55-9.54h-13.82v19.38h13.82Zm52.32-34.83h33.97c9.18 0 15.93 2.49 20.57 6.84 4.85 4.46 7.59 10.78 7.59 18.24 0 14.2-10.02 24.26-25.53 24.26h-17.62v24.77h-18.99v-74.11Zm32.8 34.83c6.75 0 10.55-3.94 10.55-9.85s-3.9-9.54-10.55-9.54h-13.82v19.38h13.82Zm35.97-34.83h18.67v58.57h33.86v15.55h-52.53v-74.11Zm57.49 48v-47.99h18.67v48.61c0 7.26 3.8 12.13 12.97 12.13 8.65 0 12.76-5.18 12.76-12.44v-48.3h18.67v47.99c0 17.1-10.44 27.47-31.43 27.47s-31.65-10.16-31.65-27.47Zm80.07 17.41c-6.54-7.05-10.13-16.79-10.13-28.09s4.01-21.87 11.18-28.92c6.22-6.22 14.98-9.85 25.84-9.85 19.41 0 31.01 10.16 33.44 25.71h-18.14c-1.37-6.01-6.43-10.57-14.66-10.57-12.45 0-18.67 10.16-18.67 23.63s7.17 23.63 18.99 23.63c9.81 0 15.61-6.43 16.35-12.96v-.21h-14.14v-13.47h31.43v39.8H701.6l-1.05-8.91h-.21c-4.96 7.57-12.34 10.57-21.41 10.57-10.76 0-19.52-3.73-25.74-10.37Zm70.67-65.41h18.67v74.11h-18.67zm29.01 0h18.78l22.36 37.21c1.16 2.07 5.17 9.43 5.17 9.43h.21s-.21-8.91-.21-11.51v-35.14h18.25v74.11h-18.78l-22.15-36.69c-1.27-1.97-5.38-9.95-5.38-9.95h-.21s.21 9.54.21 12.13v34.52h-18.25z"/></g></svg>